<?xml version="1.0" encoding="utf-8"?>
<!-- Generator: Adobe Illustrator 24.3.0, SVG Export Plug-In . SVG Version: 6.00 Build 0)  -->
<svg version="1.1" id="Layer_1" xmlns="http://www.w3.org/2000/svg" xmlns:xlink="http://www.w3.org/1999/xlink" x="0px" y="0px"
	 viewBox="0 0 61 61" style="enable-background:new 0 0 61 61;" xml:space="preserve">
<style type="text/css">
	.st0{fill:#BEFFEF;}
	.st1{fill:none;stroke:#000000;stroke-width:2;stroke-linecap:round;stroke-linejoin:round;stroke-miterlimit:10;}
</style>
<g>
	<path class="st0" d="M46.6,28.4c-1.4-1.4-3.8-1.4-5.2,0l-1.2,1.2V18.8c0-1.2-1-2.2-2.2-2.2H34c-1.2,0-2.2-1-2.2-2.2
		c0-1.2-1-2.2-2.2-2.2H18.2c-1.2,0-2.2,1-2.2,2.2c0,1.2-1,2.2-2.2,2.2h-3.5c-1.2,0-2.2,1-2.2,2.2v32.4c0,1.2,1,2.2,2.2,2.2H38
		c1.2,0,2.2-1,2.2-2.2V40l6.4-6.4C48,32.2,48,29.9,46.6,28.4z"/>
	<path class="st1" d="M36.9,13.8H20.3v-2.7c0-2.1,1.7-3.7,3.7-3.7h9.1c2.1,0,3.7,1.7,3.7,3.7V13.8z"/>
	<g>
		<path class="st1" d="M34.1,51.2l-6,0.7l0.7-6l17.6-17.6c1.5-1.5,3.9-1.5,5.3,0l0,0c1.5,1.5,1.5,3.9,0,5.3L34.1,51.2z"/>
		<path class="st1" d="M45.8,28.9l5.3,5.3c0,0,2.8,2.4,0,5.2c-2.8,2.8-6,6-6,6"/>
		<line class="st1" x1="37" y1="37.7" x2="42.3" y2="43.1"/>
		<line class="st1" x1="26.4" y1="53.7" x2="28.1" y2="51.9"/>
	</g>
	<polyline class="st1" points="16.4,20.6 18.3,22.4 22.2,18.5 	"/>
	<polyline class="st1" points="16.4,31.5 18.3,33.3 22.2,29.4 	"/>
	<line class="st1" x1="25.8" y1="20.5" x2="40" y2="20.5"/>
	<line class="st1" x1="25.8" y1="25.3" x2="35.8" y2="25.3"/>
	<line class="st1" x1="25.8" y1="30.1" x2="37.8" y2="30.1"/>
	<line class="st1" x1="25.8" y1="34.9" x2="33" y2="34.9"/>
	<path class="st1" d="M36.9,11.2h5.6c1.6,0,3,1.3,3,3v8.9"/>
	<path class="st1" d="M23.1,48.4h-8.4c-1.6,0-3-1.3-3-3V14.2c0-1.6,1.3-3,3-3h5.6"/>
</g>
</svg>
