<?xml version="1.0" encoding="utf-8"?>
<!-- Generator: Adobe Illustrator 24.3.0, SVG Export Plug-In . SVG Version: 6.00 Build 0)  -->
<svg version="1.1" id="Layer_1" xmlns="http://www.w3.org/2000/svg" xmlns:xlink="http://www.w3.org/1999/xlink" x="0px" y="0px"
	 viewBox="0 0 164.9 61.2" style="enable-background:new 0 0 164.9 61.2;" xml:space="preserve">
<path d="M55.5,30.5c-0.2-0.4-0.7-0.7-1.1-0.7h-0.9c-0.4,0-0.9,0.3-1.1,0.7l-7,14.7c-0.2,0.4,0,0.7,0.5,0.7h1.6
	c0.6,0,0.9-0.3,1.1-0.6c0.2-0.4,0.6-1.1,0.6-1.3c0.1-0.2,0.4-0.3,0.8-0.3l7.6,0c0.4,0,0.7,0.1,0.8,0.3c0.1,0.2,0.5,0.9,0.7,1.2
	c0.2,0.4,0.5,0.7,1.1,0.7h2.4c0.4,0,0.6-0.3,0.5-0.6C62.8,44.9,55.5,30.5,55.5,30.5L55.5,30.5z M51,41.3c-0.4,0-0.6-0.3-0.5-0.7
	l2.8-5.9c0.2-0.4,0.5-0.4,0.7,0l2.7,5.9c0.2,0.4,0,0.7-0.5,0.7L51,41.3L51,41.3z M109.7,30.6v14.5c0,0.4,0.4,0.7,0.8,0.7h1.9
	c0.4,0,0.8-0.3,0.8-0.7V30.6c0-0.4-0.3-0.8-0.7-0.8h-2C110.1,29.8,109.7,30,109.7,30.6L109.7,30.6z M77.6,39.7
	c-0.2-0.4-0.1-0.7,0.3-0.9c0,0,1.7-0.5,2.5-1.2c0.8-0.7,1.2-1.7,1.2-3.1c0-0.9-0.2-1.6-0.5-2.2c-0.3-0.6-0.7-1.1-1.3-1.5
	c-0.6-0.4-1.3-0.7-2-0.8c-0.8-0.2-1.9-0.2-1.9-0.2c-0.5,0-1.1,0-1.6,0h-8c-0.4,0-0.8,0.4-0.8,0.8v14.5c0,0.4,0.4,0.7,0.8,0.7h1.9
	c0.4,0,0.8-0.3,0.8-0.7c0,0,0-5.8,0-5.8c0,0,0,0,0,0c0,0,3.6,0,3.6,0c0.4,0,1,0.3,1.2,0.6l3.7,5.2c0.3,0.5,0.7,0.6,1.1,0.6h2.5
	c0.4,0,0.5-0.4,0.4-0.6C81.3,45,77.6,39.7,77.6,39.7z M76.1,36.8c-0.5,0.1-1,0.1-1,0.1c-0.5,0-1.1,0-1.6,0h-3.7
	c-0.4,0-0.8-0.4-0.8-0.8v-2.9c0-0.4,0.4-0.8,0.8-0.8h3.7c0.4,0,1.1,0,1.6,0c0,0,0.5,0,1,0.1c0.5,0.1,0.9,0.3,1.2,0.5
	c0.3,0.2,0.5,0.4,0.6,0.7C78,34,78,34.3,78,34.7c0,0.3-0.1,0.6-0.2,0.9c-0.1,0.3-0.3,0.5-0.6,0.7C76.9,36.5,76.5,36.6,76.1,36.8
	L76.1,36.8z M133.2,29.8c-0.4,0-0.8,0.3-0.8,0.7l0,9.3c0,0.4-0.2,0.5-0.5,0.2l-9.3-9.7c-0.3-0.3-0.7-0.6-1.3-0.6h-1.8
	c-0.6,0-0.8,0.3-0.8,0.6v14.9c0,0.3,0.3,0.6,0.7,0.6h1.8c0.4,0,0.7-0.2,0.7-0.6c0-0.2,0-9.8,0-9.8c0-0.4,0.2-0.5,0.5-0.2l9.7,10.1
	c0.3,0.3,0.7,0.6,1.3,0.6h1.3c0.4,0,0.8-0.4,0.8-0.8V30.6c0-0.4-0.4-0.8-0.8-0.8L133.2,29.8L133.2,29.8L133.2,29.8z M95.3,38.8
	c-0.2,0.4-0.6,0.4-0.8,0L90,30.5c-0.2-0.4-0.6-0.7-1.1-0.7h-2.5c-0.4,0-0.8,0.4-0.8,0.8v14.5c0,0.4,0.3,0.7,0.8,0.7h1.5
	c0.4,0,0.7-0.3,0.7-0.7c0-0.2,0-10.6,0-10.6c0,0,5.7,10.6,5.7,10.6c0.2,0.4,0.7,0.4,0.9,0c0,0,5.7-10.5,5.7-10.5c0,0,0,10.2,0,10.5
	c0,0.4,0.3,0.7,0.8,0.7h1.8c0.4,0,0.8-0.2,0.8-0.8V30.6c0-0.4-0.4-0.8-0.8-0.8h-2.4c-0.6,0-1,0.3-1.2,0.7L95.3,38.8L95.3,38.8z
	 M25.1,37.8c0,7.8,8,8.2,9.6,8.2c5.3,0,7.6-1.4,7.7-1.5c0.3-0.2,0.7-0.6,0.7-1.3v-5.4c0-0.5-0.4-0.9-0.9-0.9h-6.7
	c-0.5,0-0.8,0.4-0.8,0.9v0.6c0,0.5,0.3,0.9,0.8,0.9h3.9c0.4,0,0.7,0.3,0.7,0.7c0,0,0,2.4,0,2.5c-0.8,0.3-4.2,1.3-7,0.7
	c-4.1-1-4.4-4.3-4.4-5.3c0-0.8,0.3-5.1,5.2-5.5c4-0.3,6.7,1.3,6.7,1.3c0.5,0.2,1,0.1,1.2-0.4c0,0,0.5-1,0.5-1
	c0.2-0.4,0.1-0.9-0.4-1.2c0,0-2.9-1.6-7.2-1.6C25.4,29.5,25.1,36.9,25.1,37.8z M138.2,43.8h-0.7v-0.2h1.7v0.2h-0.7v2h-0.3
	L138.2,43.8L138.2,43.8z M141.5,44.8c0-0.3,0-0.7,0-1h0c-0.1,0.3-0.2,0.6-0.3,0.9l-0.4,1.1h-0.2l-0.4-1.1c-0.1-0.3-0.2-0.6-0.3-0.9
	h0c0,0.3,0,0.7,0,1l-0.1,1h-0.3l0.2-2.3h0.4l0.4,1.1c0.1,0.3,0.2,0.5,0.2,0.8h0c0.1-0.2,0.1-0.5,0.2-0.8l0.4-1.1h0.4l0.1,2.3h-0.3
	L141.5,44.8L141.5,44.8z"/>
<g>
	<path d="M132.4,25.8l-10.5,0c-0.4,0-0.7-0.2-0.9-0.5c-0.2-0.3-0.2-0.7,0-1l5.2-9.1c0.2-0.3,0.5-0.5,0.9-0.5c0.4,0,0.7,0.2,0.9,0.5
		l5.2,9.1c0.2,0.3,0.2,0.7,0,1C133.1,25.6,132.7,25.8,132.4,25.8L132.4,25.8z"/>
</g>
</svg>
