<?xml version="1.0" encoding="utf-8"?>
<!-- Generator: Adobe Illustrator 24.3.0, SVG Export Plug-In . SVG Version: 6.00 Build 0)  -->
<svg version="1.1" id="Layer_1" xmlns="http://www.w3.org/2000/svg" xmlns:xlink="http://www.w3.org/1999/xlink" x="0px" y="0px"
	 viewBox="0 0 164.9 61.2" style="enable-background:new 0 0 164.9 61.2;" xml:space="preserve">
<path id="wordmark" d="M60.3,31.6c0,2-1.7,3.6-3.9,3.6c-2.2,0-3.9-1.6-3.9-3.6v-7h-1.2v7.1c0,2.5,2,4.7,5,4.7c3.1,0,5-2.3,5-4.7
	v-7.1h-1.2V31.6z M72.9,24.5h-3.7v11.8h3.7c3.4,0,5.7-2.3,5.7-5.9C78.7,26.9,76.4,24.5,72.9,24.5z M72.8,35.2h-2.4v-9.5h2.4
	c2.8,0,4.7,2,4.7,4.7C77.5,33.4,75.7,35.2,72.8,35.2L72.8,35.2z M105.9,35.2c-2.7,0-4.7-2.3-4.7-5s2-4.8,4.7-4.8
	c2.1,0,3.5,1.2,3.5,1.2l0.6-0.8c0,0-1.4-1.5-4.1-1.5c-3.3,0-5.8,2.5-5.8,5.9c0,3.3,2.4,6.2,5.9,6.2c2.8,0,4.4-2,4.4-2l-0.7-0.8
	C109.6,33.7,108.2,35.2,105.9,35.2L105.9,35.2z M117.8,36.4h1.2V24.5h-1.2V36.4z M125.5,25.7h4.1v10.7h1.2V25.7h4.1v-1.2h-9.5V25.7z
	 M148.7,24.5l-3.7,5.3l-3.7-5.3H140l4.4,6.6v5.3h1.2v-5.3l4.4-6.6H148.7z M88.7,24.5L84,36.4h1.2l1.2-3.4l5.2-1.1l1.7,4.4h1.2
	l-4.7-11.8H88.7L88.7,24.5z M87,31.7l2.3-5.6h0.1l2,4.7L87,31.7z"/>
<path id="mark" d="M24.4,18l-7.9,4.6V33c0,4.8,3.9,8.7,8.6,8.7c1.6,0,3.1-0.4,4.4-1.1l6.4-3.7c2.5-1.4,4.3-4,4.3-7V19l-1.5-0.9
	l-6.8,3.6v11.4c0,0.5-0.1,0.9-0.1,1.4c-0.1,0.5-0.2,0.9-0.4,1.3l-0.2,0.4c-0.2,0-1.7-0.5-2.5-1.1c-0.4-0.2-0.7-0.5-0.9-0.8
	s-0.5-0.6-0.8-0.9c-0.2-0.4-1.1-1.9-1.1-3.4v-11L24.4,18z M28.2,39.5c-0.4,0.2-1,0.4-1.5,0.5c-0.5,0.1-0.9,0.1-1.4,0.1
	c-0.5,0-0.9-0.1-1.4-0.2c-0.5-0.1-0.9-0.2-1.3-0.4c-0.4-0.2-0.8-0.4-1.2-0.7c-1-0.7-1.5-1.3-1.9-2c-0.2-0.4-0.5-0.8-0.7-1.2
	c-0.2-0.4-0.3-0.9-0.4-1.4c-0.2-0.4-0.2-0.9-0.2-1.4v-9.5l5.9-3.6v10c0,3.8,2.8,7,6.3,7.8c-0.1,0.2-0.2,0.4-0.4,0.5
	C29.5,38.8,28.9,39.2,28.2,39.5L28.2,39.5z M38.3,31.2c-0.1,0.4-0.2,0.8-0.4,1.2c-0.2,0.4-0.4,0.7-0.6,1.1c-0.2,0.4-0.9,1.2-1.9,1.8
	s-1.8,0.7-2.4,0.8c0.4-0.9,0.6-1.9,0.6-3V22.6l4.7-2.7v10C38.4,30.3,38.4,30.8,38.3,31.2z"/>
</svg>
