<?xml version="1.0" encoding="utf-8"?>
<!-- Generator: Adobe Illustrator 24.3.0, SVG Export Plug-In . SVG Version: 6.00 Build 0)  -->
<svg version="1.1" id="Layer_1" xmlns="http://www.w3.org/2000/svg" xmlns:xlink="http://www.w3.org/1999/xlink" x="0px" y="0px"
	 viewBox="0 0 164.9 61.2" style="enable-background:new 0 0 164.9 61.2;" xml:space="preserve">
<path d="M61.6,21.3c-2.1,0-3.1,0.2-4.1,0.6L57.3,22l1.2,2.1l0.1-0.1c0.8-0.3,1.7-0.4,3.3-0.4h1.8c2.6,0,4,1.3,4,3.5V34
	c0,2.2-1.5,3.5-4,3.5h-2.9c-2.6,0-3.9-1.1-3.9-3.2c0-2.2,1.3-3.2,3.9-3.2h4v-2.3h-4.1c-3.9,0-6.1,2-6.1,5.6c0,3.4,2.4,5.5,6.1,5.5
	h3.1c4.3,0,6.3-2.9,6.3-5.5v-7.5c0-2.7-2-5.5-6.3-5.5L61.6,21.3L61.6,21.3z M79,21.3c-4.3,0-6.3,2.9-6.3,5.5v7.5
	c0,2.7,2,5.5,6.3,5.5h2.7c2.2,0,3.6-0.3,4.8-1.1l0.1-0.1l-1.3-1.9l-0.1,0.1c-0.9,0.5-2,0.7-3.8,0.7h-2.3c-2.6,0-4-1.2-4-3.5v-6.9
	c0-2.3,1.4-3.5,4-3.5h2.3c1.8,0,2.9,0.2,3.8,0.7l0.1,0.1l1.3-2l-0.1-0.1c-1.2-0.7-2.6-1.1-4.8-1.1L79,21.3L79,21.3z M94.4,21.3
	c-4.3,0-6.3,2.9-6.3,5.5v7.5c0,2.7,2,5.5,6.3,5.5h3.1c4.3,0,6.3-2.9,6.3-5.5v-7.5c0-2.7-2-5.5-6.3-5.5
	C97.4,21.3,94.4,21.3,94.4,21.3z M112.6,21.3c-3.7,0-6.1,2.1-6.1,5.4v13.1h2.3V27c0-2.3,1.3-3.4,3.9-3.4c2.5,0,3.8,1.1,3.8,3.2v13
	h2.3v-13c0-2,1.4-3.2,3.8-3.2c2.6,0,3.9,1.1,3.9,3.4v12.8h2.3V26.7c0-3.3-2.4-5.4-6.1-5.4c-2.5,0-4,0.6-5.1,2.1
	C116.6,22,115.1,21.3,112.6,21.3L112.6,21.3z M29.9,21.4v13.1c0,3.3,2.4,5.4,6.1,5.4c2.5,0,4-0.6,5.1-2.1c1.1,1.5,2.6,2.1,5.1,2.1
	c3.7,0,6.1-2.1,6.1-5.4V21.4h-2.3v12.8c0,2.3-1.3,3.3-3.9,3.3c-2.5,0-3.8-1.1-3.8-3.1v-13H40v13c0,2-1.4,3.1-3.8,3.1
	c-2.6,0-3.9-1.1-3.9-3.3V21.4L29.9,21.4L29.9,21.4z M133.2,21.4c-0.5,0-0.9,0.2-1.3,0.5c-0.3,0.4-0.5,0.8-0.5,1.3
	c0,0.5,0.2,0.9,0.5,1.3c0.3,0.4,0.8,0.5,1.3,0.5c0.5,0,0.9-0.2,1.3-0.5c0.4-0.4,0.5-0.8,0.5-1.3c0-0.5-0.2-0.9-0.5-1.3
	C134.1,21.6,133.7,21.4,133.2,21.4z M133.2,21.7c0.4,0,0.8,0.2,1.1,0.5c0.3,0.3,0.5,0.7,0.5,1.1c0,0.4-0.2,0.8-0.5,1.1
	c-0.3,0.3-0.7,0.5-1.1,0.5c-0.4,0-0.8-0.2-1.1-0.5c-0.3-0.3-0.5-0.7-0.5-1.1c0-0.4,0.2-0.8,0.5-1.1
	C132.4,21.8,132.8,21.7,133.2,21.7z M132.5,22.2v2h0.3v-0.8h0.3c0.2,0,0.3,0,0.4,0.1c0.1,0.1,0.2,0.2,0.2,0.4v0.2l0,0.1c0,0,0,0,0,0
	c0,0,0,0,0,0h0.3l0,0c0,0,0-0.1,0-0.1c0-0.1,0-0.1,0-0.1v-0.2c0-0.1,0-0.2-0.1-0.3c-0.1-0.1-0.2-0.2-0.3-0.2c0.1,0,0.2,0,0.3-0.1
	c0.1-0.1,0.2-0.2,0.2-0.4c0-0.2-0.1-0.4-0.3-0.5c-0.1,0-0.3-0.1-0.5-0.1H132.5L132.5,22.2z M132.8,22.5h0.3c0.2,0,0.3,0,0.4,0.1
	c0.1,0,0.1,0.1,0.1,0.3c0,0.2-0.1,0.3-0.2,0.3c-0.1,0-0.2,0-0.3,0h-0.3V22.5L132.8,22.5z M94.5,23.6h2.9c2.6,0,4,1.3,4,3.5V34
	c0,2.2-1.5,3.5-4,3.5h-2.9c-2.6,0-4-1.2-4-3.5v-6.9C90.4,24.9,91.9,23.6,94.5,23.6z"/>
</svg>
