<?xml version="1.0" encoding="utf-8"?>
<!-- Generator: Adobe Illustrator 24.3.0, SVG Export Plug-In . SVG Version: 6.00 Build 0)  -->
<svg version="1.1" id="Layer_1" xmlns="http://www.w3.org/2000/svg" xmlns:xlink="http://www.w3.org/1999/xlink" x="0px" y="0px"
	 viewBox="0 0 61 61" style="enable-background:new 0 0 61 61;" xml:space="preserve">
<style type="text/css">
	.st0{fill:#BEFFEF;}
	.st1{fill:none;stroke:#000000;stroke-width:2;stroke-linecap:round;stroke-linejoin:round;stroke-miterlimit:10;}
</style>
<g>
	<path class="st0" d="M46.8,20.1c-5.2,0-9.4-4.6-9.5-10.3c-2.3-0.5-5.1-0.7-8.5-0.7c-3.6,0-6.4,0.3-8.8,0.8
		c-0.1,5.7-4.3,10.2-9.5,10.2c-0.2,5.1,0.1,11.3,0.1,16.9c0,12.7,18.2,17.9,18.2,17.9S46.9,49.6,46.9,37c0-5.7,0.2-11.8,0.1-16.9
		C46.9,20.1,46.8,20.1,46.8,20.1z"/>
	<path class="st1" d="M50.3,17.1c-5.2,0-9.4-4.6-9.5-10.3c-2.3-0.5-5.1-0.7-8.5-0.7c-3.6,0-6.4,0.3-8.8,0.8
		c-0.1,5.7-4.3,10.2-9.5,10.2c-0.2,5.1,0.1,11.3,0.1,16.9c0,12.7,18.2,17.9,18.2,17.9S50.4,46.6,50.4,34c0-5.7,0.2-11.8,0.1-16.9
		C50.4,17.1,50.3,17.1,50.3,17.1z"/>
	<polyline class="st1" points="35.2,24.9 44.8,24.9 37,30.6 40,39.7 32.2,34 24.5,39.7 25.9,35.5 	"/>
	<polyline class="st1" points="27.5,30.6 19.7,24.9 29.3,24.9 32.2,15.8 33.4,19.3 	"/>
	<path class="st1" d="M26.3,43.2c3.1,2.1,5.9,3.1,5.9,3.1s2.9-1.1,5.9-3.1"/>
	<path class="st1" d="M45.5,20.8c-3.8,0-8.9-4.4-8.9-8.6"/>
	<path class="st1" d="M19.5,29.7"/>
	<path class="st1" d="M27.8,12.2c-0.1,4.1-5.1,8.5-8.9,8.5"/>
	<path class="st1" d="M44.6,36.5c0.6-1.3,1-2.8,1-4.4c0-0.8,0-1.6,0-2.4"/>
	<path class="st1" d="M18.9,29.7c0,0.8,0,1.6,0,2.4c0,1.6,0.4,3,1,4.4"/>
</g>
</svg>
