<?xml version="1.0" encoding="utf-8"?>
<!-- Generator: Adobe Illustrator 24.3.0, SVG Export Plug-In . SVG Version: 6.00 Build 0)  -->
<svg version="1.1" id="Layer_1" xmlns="http://www.w3.org/2000/svg" xmlns:xlink="http://www.w3.org/1999/xlink" x="0px" y="0px"
	 viewBox="0 0 61 61" style="enable-background:new 0 0 61 61;" xml:space="preserve">
<style type="text/css">
	.st0{fill:#BEFFEF;}
	.st1{font-family:'Lexend-Regular';}
	.st2{font-size:18.3661px;}
	.st3{fill:none;stroke:#000000;stroke-width:2;stroke-linecap:round;stroke-linejoin:round;stroke-miterlimit:10;}
</style>
<g>
	<circle class="st0" cx="32.8" cy="29.7" r="23.4"/>
	<text transform="matrix(1 0 0 1 17.2816 37.5825)" class="st1 st2">24</text>
	<g>
		<path class="st3" d="M16.4,43c-3.6-3.6-5.1-8.5-4.6-13.3l4.5-4.9c1.2-1.2,1.6-3,0.4-4.2l-3.1-3.1c-1.2-1.2-3.1-1.1-4.1,0.3
			c-6.9,9-6.2,21.9,2,30.1s21.1,8.9,30.1,2c1.3-1,1.4-2.9,0.3-4.1l-3.1-3.1c-1.2-1.2-3-0.8-4.2,0.4l-4.9,4.4
			C25,48.2,20,46.7,16.4,43z"/>
		<line class="st3" x1="8.3" y1="19.6" x2="14.6" y2="25.9"/>
		<line class="st3" x1="33.6" y1="44.9" x2="39.8" y2="51.2"/>
		<path class="st3" d="M20.7,17.4c6-2.9,13.4-1.9,18.4,3s6,12.4,3,18.4"/>
		<path class="st3" d="M47.2,43.9c5.5-8.8,4.5-20.6-3.2-28.3s-19.5-8.7-28.3-3.2"/>
	</g>
</g>
</svg>
