<?xml version="1.0" encoding="utf-8"?>
<!-- Generator: Adobe Illustrator 24.3.0, SVG Export Plug-In . SVG Version: 6.00 Build 0)  -->
<svg version="1.1" id="Layer_1" xmlns="http://www.w3.org/2000/svg" xmlns:xlink="http://www.w3.org/1999/xlink" x="0px" y="0px"
	 viewBox="0 0 61 61" style="enable-background:new 0 0 61 61;" xml:space="preserve">
<style type="text/css">
	.st0{fill:#BEFFEF;}
	.st1{fill:none;stroke:#000000;stroke-width:2;stroke-linecap:round;stroke-linejoin:round;stroke-miterlimit:10;}
</style>
<g>
	<path class="st0" d="M45.1,16.2H12c-2.8,0-5,2.2-5,5v28.1c0,2.8,2.2,5,5,5h33.1c2.8,0,5-2.2,5-5V21.2
		C50.1,18.4,47.9,16.2,45.1,16.2z"/>
	<path class="st1" d="M21.1,16h-4.2V8.7c0-1.2,0.9-2.1,2.1-2.1h0c1.2,0,2.1,0.9,2.1,2.1V16z"/>
	<g>
		<polyline class="st1" points="23.7,28.3 23.7,33.6 16.9,33.6 16.9,28.3 		"/>
		<polyline class="st1" points="35.9,28.3 35.9,33.6 29.1,33.6 29.1,28.3 		"/>
		<polyline class="st1" points="48.1,28.3 48.1,33.6 41.2,33.6 41.2,28.3 		"/>
	</g>
	<g>
		<polyline class="st1" points="23.7,38.9 23.7,44.1 16.9,44.1 16.9,38.9 		"/>
		<polyline class="st1" points="35.9,38.9 35.9,44.1 29.1,44.1 29.1,38.9 		"/>
		<polyline class="st1" points="48.1,38.9 48.1,44.1 41.2,44.1 41.2,38.9 		"/>
	</g>
	<path class="st1" d="M48.1,16h-4.2V8.7c0-1.2,0.9-2.1,2.1-2.1h0c1.2,0,2.1,0.9,2.1,2.1V16z"/>
	<path class="st1" d="M16.9,12.3h-1.4c-2.5,0-4.6,2.1-4.6,4.6v5.2h43.2v-5.2c0-2.5-2.1-4.6-4.6-4.6h-1.4"/>
	<line class="st1" x1="43.9" y1="12.3" x2="26" y2="12.3"/>
	<path class="st1" d="M10.9,22.1v23.7c0,2.5,2.1,4.6,4.6,4.6h34c2.5,0,4.6-2.1,4.6-4.6V27.9"/>
</g>
</svg>
