<?xml version="1.0" encoding="utf-8"?>
<!-- Generator: Adobe Illustrator 24.3.0, SVG Export Plug-In . SVG Version: 6.00 Build 0)  -->
<svg version="1.1" id="Layer_1" xmlns="http://www.w3.org/2000/svg" xmlns:xlink="http://www.w3.org/1999/xlink" x="0px" y="0px"
	 viewBox="0 0 61 61" style="enable-background:new 0 0 61 61;" xml:space="preserve">
<style type="text/css">
	.st0{fill:#BEFFEF;}
	.st1{fill:none;stroke:#000000;stroke-width:2;stroke-linecap:round;stroke-linejoin:round;stroke-miterlimit:10;}
</style>
<g>
	<g>
		<path class="st0" d="M38,9H13.7c-2.2,0-3.9,1.8-3.9,3.9v23.6c0,2.2,1.8,3.9,3.9,3.9h28.2V12.9C41.9,10.7,40.2,9,38,9z"/>
		<circle class="st0" cx="20.7" cy="40.3" r="5.2"/>
		<circle class="st0" cx="48.9" cy="40.3" r="5.2"/>
		<path class="st0" d="M45.3,17.8h-3.8v22.6h12.3c1.2,0,2.2-1,2.2-2.2v-9.7C56,22.6,51.2,17.8,45.3,17.8z"/>
	</g>
	<line class="st1" x1="36.5" y1="44.3" x2="26.7" y2="44.3"/>
	<path class="st1" d="M7,13h26.8c2.5,0,4.5,2,4.5,4.5v11.1"/>
	<path class="st1" d="M38.3,37.7V21.8h3.4c5.9,0,10.8,4.8,10.8,10.8v5.2"/>
	<circle class="st1" cx="17.2" cy="44.3" r="5.2"/>
	<circle class="st1" cx="45.4" cy="44.3" r="5.2"/>
	<path class="st1" d="M38.4,37.8c1.7-1.9,4.2-3.1,7-3.1c3.8,0,7.1,2.2,8.6,5.5"/>
	<path class="st1" d="M7.6,44.3c0-5.3,4.3-9.5,9.5-9.5s9.5,4.3,9.5,9.5"/>
	<line class="st1" x1="11.5" y1="18.8" x2="22.8" y2="18.8"/>
	<line class="st1" x1="7" y1="25.1" x2="17.8" y2="25.1"/>
	<line class="st1" x1="8.5" y1="31.4" x2="11.3" y2="31.4"/>
	<line class="st1" x1="7" y1="37.7" x2="10.2" y2="37.7"/>
	<line class="st1" x1="45.4" y1="49.4" x2="35.1" y2="49.4"/>
	<line class="st1" x1="16.7" y1="49.4" x2="6.3" y2="49.4"/>
</g>
</svg>
