<?xml version="1.0" encoding="utf-8"?>
<!-- Generator: Adobe Illustrator 24.3.0, SVG Export Plug-In . SVG Version: 6.00 Build 0)  -->
<svg version="1.1" id="Layer_1" xmlns="http://www.w3.org/2000/svg" xmlns:xlink="http://www.w3.org/1999/xlink" x="0px" y="0px"
	 viewBox="0 0 164.9 61.2" style="enable-background:new 0 0 164.9 61.2;" xml:space="preserve">
<path d="M110.1,22.5V10.7h2.4v10.2C111.8,21.2,110.9,21.8,110.1,22.5z M105.9,26.1c0.7-0.9,1.5-1.8,2.4-2.6V10.7h-2.4V26.1z
	 M77.8,35.5c0,3.2,1.2,6.2,3.5,8.5c2.3,2.3,5.3,3.5,8.5,3.5c1.3,0,2.7-0.3,3.7-0.8v-2.4c-1.1,0.5-2.5,0.8-3.7,0.8
	c-5.2,0-9.6-4.4-9.6-9.6v-2.2c0-5.2,4.4-9.6,9.6-9.6c2.6,0,5,1,6.8,2.8s2.8,4.2,2.8,6.8v14.2h2.4V32.8c-0.1-3.1-1.5-6-3.7-8.2
	c-2.3-2.2-5.2-3.4-8.3-3.4c-3.2,0-6.2,1.2-8.5,3.5c-2.3,2.3-3.5,5.3-3.5,8.5V35.5L77.8,35.5z M114.1,29.7c1.1-1.1,2.5-1.7,3.9-1.7
	c3,0,5.3,2.4,5.3,5.3v2.2c0,3-2.4,5.3-5.3,5.3c-1.5,0-2.9-0.8-4-2.2c-1-1.3-1.6-3-1.7-4.6l-2,2.4c0.4,1.8,1.3,3.6,2.7,4.8
	c1.4,1.3,3.2,2,4.9,2c4.3,0,7.8-3.5,7.8-7.8v-2.2c0-2-0.8-4-2.3-5.4c-1.5-1.5-3.4-2.3-5.5-2.3c-1.3,0-3.3,0.5-5.7,2.6
	c-0.7,0.7-2.2,2.2-3.1,3.3c-1.6,1.7-3.8,4.3-5.8,6.9v3.8c2.1-2.8,3.4-4.3,5.4-6.6C110.6,33.3,112.8,30.8,114.1,29.7L114.1,29.7z
	 M56.8,25.1v-2.9c-2.2-1.2-4.6-1.7-7.8-1.7c-3.2,0-6.3,1.2-8.7,3.3c-2.4,2.2-3.6,5-3.6,8v0.8c0,6.3,5,11.4,11.2,11.4
	c5,0,7.1-1.6,7.6-2.2v-7.3h-8.2V37h5.9v3.7h0c-0.8,0.3-2.4,0.9-5.3,0.9c-2.4,0-4.6-0.9-6.2-2.6c-1.7-1.7-2.6-3.9-2.6-6.3v-0.8
	c0-4.8,4.5-8.9,9.9-8.9C52.7,22.9,54.9,23.6,56.8,25.1L56.8,25.1z M74.5,27.9c0.9,0,1.7,0.1,2.3,0.4c0.3-0.7,0.6-1.4,1.1-2.1
	c-0.7-0.5-2.2-0.8-3.4-0.8c-4.4,0-7.8,3.3-7.8,7.8v14.2h2.4V33.3C69.1,30.1,71.3,27.9,74.5,27.9L74.5,27.9z M32.5,31.9v0.8
	c0,4.2,1.6,8.1,4.5,11.1c2.9,2.9,6.8,4.5,10.9,4.5c3.3,0,6.3-0.7,8.8-2.2c2.1-1.2,3-2.5,3-2.6V30.4H47.3v2.4h10v9.9
	c-1.2,1.2-4,3.1-9.4,3.1c-3.5,0-6.8-1.4-9.3-3.8c-2.4-2.4-3.7-5.8-3.7-9.3v-0.8c0-3.4,1.5-6.7,4.2-9.2c2.7-2.5,6.2-3.9,9.9-3.9
	c3.5,0,5.8,0.5,7.8,1.7v-2.7c-2-0.9-4.4-1.2-7.8-1.2C40.1,16.5,32.5,23.5,32.5,31.9z M97.5,47.5V33.3c0-4.4-3.4-7.8-7.8-7.8
	c-2,0-4,0.8-5.5,2.3c-1.5,1.5-2.3,3.4-2.3,5.4v2.2c0,4.2,3.6,7.8,7.8,7.8c1.2,0,2.7-0.3,3.7-1.1v-2.5c-1,0.8-2.3,1.2-3.7,1.2
	c-3,0-5.3-2.4-5.3-5.3v-2.2c0-3,2.4-5.3,5.3-5.3c3,0,5.3,2.4,5.3,5.3v14.2L97.5,47.5L97.5,47.5z M74.5,23.7c1.6,0,3.1,0.4,4.4,1.1
	c0.6-0.8,1.2-1.4,1.7-1.8c-1.4-1-3.7-1.7-6-1.7c-3.4,0-6.4,1.2-8.6,3.4c-2.2,2.2-3.4,5.2-3.4,8.6v14.2h2.4V33.3
	C64.9,27.7,68.8,23.7,74.5,23.7L74.5,23.7z M126.4,24.8c-2.3-2.3-5.3-3.5-8.5-3.5c-2.3,0-4.6,0.9-5.9,1.7c-2.6,1.8-4.8,3.7-8.7,8.7
	v3.6c3.3-4.3,6.5-7.7,8.8-9.6c1.6-1.2,3.8-2,5.8-2c5.2,0,9.6,4.4,9.6,9.6v2.2c0,2.6-1,5-2.8,6.8c-1.8,1.8-4.2,2.8-6.7,2.8
	c-4.3,0-8-2.9-9-6.9l-1.7,2.1c1.2,4.2,5.8,7.3,10.7,7.3c3.2,0,6.2-1.3,8.5-3.5c2.3-2.3,3.5-5.3,3.5-8.5v-2.2
	C130,30.1,128.7,27.1,126.4,24.8L126.4,24.8z"/>
<path d="M110.1,22.5V10.7h2.4v10.2C111.8,21.2,110.9,21.8,110.1,22.5z M105.9,26.1c0.7-0.9,1.5-1.8,2.4-2.6V10.7h-2.4V26.1z
	 M77.8,35.5c0,3.2,1.2,6.2,3.5,8.5c2.3,2.3,5.3,3.5,8.5,3.5c1.3,0,2.7-0.3,3.7-0.8v-2.4c-1.1,0.5-2.5,0.8-3.7,0.8
	c-5.2,0-9.6-4.4-9.6-9.6v-2.2c0-5.2,4.4-9.6,9.6-9.6c2.6,0,5,1,6.8,2.8s2.8,4.2,2.8,6.8v14.2h2.4V32.8c-0.1-3.1-1.5-6-3.7-8.2
	c-2.3-2.2-5.2-3.4-8.3-3.4c-3.2,0-6.2,1.2-8.5,3.5c-2.3,2.3-3.5,5.3-3.5,8.5V35.5L77.8,35.5z M114.1,29.7c1.1-1.1,2.5-1.7,3.9-1.7
	c3,0,5.3,2.4,5.3,5.3v2.2c0,3-2.4,5.3-5.3,5.3c-1.5,0-2.9-0.8-4-2.2c-1-1.3-1.6-3-1.7-4.6l-2,2.4c0.4,1.8,1.3,3.6,2.7,4.8
	c1.4,1.3,3.2,2,4.9,2c4.3,0,7.8-3.5,7.8-7.8v-2.2c0-2-0.8-4-2.3-5.4c-1.5-1.5-3.4-2.3-5.5-2.3c-1.3,0-3.3,0.5-5.7,2.6
	c-0.7,0.7-2.2,2.2-3.1,3.3c-1.6,1.7-3.8,4.3-5.8,6.9v3.8c2.1-2.8,3.4-4.3,5.4-6.6C110.6,33.3,112.8,30.8,114.1,29.7L114.1,29.7z
	 M56.8,25.1v-2.9c-2.2-1.2-4.6-1.7-7.8-1.7c-3.2,0-6.3,1.2-8.7,3.3c-2.4,2.2-3.6,5-3.6,8v0.8c0,6.3,5,11.4,11.2,11.4
	c5,0,7.1-1.6,7.6-2.2v-7.3h-8.2V37h5.9v3.7h0c-0.8,0.3-2.4,0.9-5.3,0.9c-2.4,0-4.6-0.9-6.2-2.6c-1.7-1.7-2.6-3.9-2.6-6.3v-0.8
	c0-4.8,4.5-8.9,9.9-8.9C52.7,22.9,54.9,23.6,56.8,25.1L56.8,25.1z M74.5,27.9c0.9,0,1.7,0.1,2.3,0.4c0.3-0.7,0.6-1.4,1.1-2.1
	c-0.7-0.5-2.2-0.8-3.4-0.8c-4.4,0-7.8,3.3-7.8,7.8v14.2h2.4V33.3C69.1,30.1,71.3,27.9,74.5,27.9L74.5,27.9z M32.5,31.9v0.8
	c0,4.2,1.6,8.1,4.5,11.1c2.9,2.9,6.8,4.5,10.9,4.5c3.3,0,6.3-0.7,8.8-2.2c2.1-1.2,3-2.5,3-2.6V30.4H47.3v2.4h10v9.9
	c-1.2,1.2-4,3.1-9.4,3.1c-3.5,0-6.8-1.4-9.3-3.8c-2.4-2.4-3.7-5.8-3.7-9.3v-0.8c0-3.4,1.5-6.7,4.2-9.2c2.7-2.5,6.2-3.9,9.9-3.9
	c3.5,0,5.8,0.5,7.8,1.7v-2.7c-2-0.9-4.4-1.2-7.8-1.2C40.1,16.5,32.5,23.5,32.5,31.9z M97.5,47.5V33.3c0-4.4-3.4-7.8-7.8-7.8
	c-2,0-4,0.8-5.5,2.3c-1.5,1.5-2.3,3.4-2.3,5.4v2.2c0,4.2,3.6,7.8,7.8,7.8c1.2,0,2.7-0.3,3.7-1.1v-2.5c-1,0.8-2.3,1.2-3.7,1.2
	c-3,0-5.3-2.4-5.3-5.3v-2.2c0-3,2.4-5.3,5.3-5.3c3,0,5.3,2.4,5.3,5.3v14.2L97.5,47.5L97.5,47.5z M74.5,23.7c1.6,0,3.1,0.4,4.4,1.1
	c0.6-0.8,1.2-1.4,1.7-1.8c-1.4-1-3.7-1.7-6-1.7c-3.4,0-6.4,1.2-8.6,3.4c-2.2,2.2-3.4,5.2-3.4,8.6v14.2h2.4V33.3
	C64.9,27.7,68.8,23.7,74.5,23.7L74.5,23.7z M126.4,24.8c-2.3-2.3-5.3-3.5-8.5-3.5c-2.3,0-4.6,0.9-5.9,1.7c-2.6,1.8-4.8,3.7-8.7,8.7
	v3.6c3.3-4.3,6.5-7.7,8.8-9.6c1.6-1.2,3.8-2,5.8-2c5.2,0,9.6,4.4,9.6,9.6v2.2c0,2.6-1,5-2.8,6.8c-1.8,1.8-4.2,2.8-6.7,2.8
	c-4.3,0-8-2.9-9-6.9l-1.7,2.1c1.2,4.2,5.8,7.3,10.7,7.3c3.2,0,6.2-1.3,8.5-3.5c2.3-2.3,3.5-5.3,3.5-8.5v-2.2
	C130,30.1,128.7,27.1,126.4,24.8L126.4,24.8z"/>
</svg>
