<?xml version="1.0" encoding="utf-8"?>
<!-- Generator: Adobe Illustrator 24.3.0, SVG Export Plug-In . SVG Version: 6.00 Build 0)  -->
<svg version="1.1" id="Layer_1" xmlns="http://www.w3.org/2000/svg" xmlns:xlink="http://www.w3.org/1999/xlink" x="0px" y="0px"
	 viewBox="0 0 164.9 61.2" style="enable-background:new 0 0 164.9 61.2;" xml:space="preserve">
<g>
	<g>
		<path d="M75.4,27.6c1,0.5,2.1,1,3.3,1.2c0.7,0.1,1.5,0.2,2.1,0.6C81.2,30,82,30,82.6,30c0.2-0.2,0.6-0.4,0.6-0.7
			c0-0.3,0.2-0.6,0.1-0.8c-0.1-0.2-0.2-0.3-0.3-0.5l-0.5-2.4L82.2,25c-0.2,0-0.4,0.1-0.6,0.1c-0.4,0-0.7,0-1.1,0
			c-0.2-0.1-0.4-0.2-0.7-0.4l-1.6,0c-0.7,0.3-1.5,0.5-2.1,0.9c-0.4,0.3-0.9,0.6-1.2,0.9c-0.1,0.1-0.1,0.2-0.1,0.3l0.3,0.6
			C75.1,27.4,75.2,27.5,75.4,27.6z M142.9,39.9l-0.8,0.4l-1.1,0l-0.7,1.1c-0.3,0.1-0.7,0-1-0.1c-0.1,0-0.2-0.1-0.4-0.2
			c-0.1,0-0.2,0-0.3,0c0-0.2-0.1-0.3-0.2-0.4c-0.2-0.2-0.7,0-0.8-0.3c0-0.1,0-0.1,0-0.2c0.6-0.5,1.4-0.7,2.1-0.5l0.2-0.3l-0.3-0.1
			c-0.4,0.1-0.9,0.1-1.3,0c-0.2,0-0.4,0-0.5,0c-0.3,0-0.6-0.1-0.9-0.2c-0.9-0.2-1.7-0.5-2.5-0.7c-0.2-0.3-0.6-0.3-0.8-0.5
			c-0.3-0.2-0.6-0.3-0.7-0.6l-0.3-1c-0.1-0.3-0.3-0.4-0.4-0.7c-0.1-0.3-0.2-0.6-0.3-0.8c-0.1-0.1-0.1,0.1-0.3,0.2c0,0-0.1,0-0.2,0
			l-0.8-1c-0.3,0.1-0.5,0-0.8-0.1c-0.1-0.1-0.3,0-0.4,0c-0.1-0.1-0.1-0.2-0.1-0.3c-0.1-0.3-0.4-0.6-0.8-0.5l-0.2-0.3l-1-0.5
			c-0.1,0-0.2,0-0.3,0.1c-0.1,0.1-0.3,0-0.4-0.1c-0.1-0.1-0.3-0.1-0.4-0.1c-0.3,0-0.5,0.2-0.7,0.2c-0.1,0-0.2-0.1-0.4-0.2
			c-0.3-0.2-0.6-0.1-0.9-0.2l-0.7-0.5l-3.5-1.3l-2.8,1.4l-2.5,2.2c-0.2,0.1-0.1,0.4-0.3,0.6c-0.2,0.2-0.4,0.2-0.6,0.2
			c-0.2,0-0.4-0.1-0.5-0.3c-0.1-0.2,0-0.4,0-0.5c-0.1-0.5-0.2-0.9-0.3-1.4c0-1.5,0.2-3,0.6-4.4c0.7-0.4,1.4-0.8,2.2-0.9
			c0.1,0,0.3,0,0.4,0c0.1-0.1,0.1-0.2,0.2-0.3c0.5-0.1,1,0,1.5,0.1c1.4,0.1,2.9-0.5,3.5-1.7c0-0.2-0.2-0.3-0.4-0.4
			c-0.4-0.2-0.7-0.3-1.1-0.3c-0.3,0-0.6,0.2-1,0.1c-0.4,0-0.7-0.3-1-0.3c-0.3,0-0.7,0.1-1,0.2l-2.7,0c-0.3,0-0.5-0.1-0.7-0.2
			c-0.4-0.4-0.5-1.1-0.6-1.6c-0.1,0-0.2,0-0.3,0c-0.1,0-0.3,0-0.4-0.1c-0.1-0.1-0.1-0.2-0.1-0.3c0-0.4-0.1-0.8-0.2-1.1h-0.1
			l-0.1,0.4c-0.1,0.1-0.4,0-0.4-0.2c-0.1-0.4-0.4-0.6-0.6-0.9l-1.3-0.7l-0.4,0l-1.1,0.4l-0.2,3.1c0,0.2,0.1,0.3,0,0.5
			c0,0.1-0.1,0.2-0.2,0.3c-0.7,0.1-1.3,0-2-0.1c-0.6-0.1-1.2,0.1-1.8-0.1c-0.2,0-0.4-0.1-0.6-0.1c-0.2,0-0.4-0.1-0.7-0.1l-2.7,0
			l-2.2,0.4L96,24.3c0,0,0,0.1-0.1,0.1c-0.1,0.1-0.3,0-0.4,0c-0.2,0-0.4,0.1-0.5,0.2l-1.7,1.1c-0.3,0.2-0.5,0.6-0.8,0.7l0,0.3
			c0.8,0.5,1.9,0.6,2.8,0.6c0.4,0,0.7,0.1,1.1,0.1c0.2,0,0.5-0.1,0.7-0.1c0.4,0,0.7,0.2,1,0.3c0.6,0.1,1.2,0,1.8,0.1l0.5,0.3
			c0.3-0.2,0.6-0.3,1-0.3c0.4,0,0.8,0.1,1.2,0.2c0.6,0,1.2,0,1.7,0.1c0.2-0.2,0.5-0.3,0.8-0.2c0.5,0.4,1.1,0.7,1.6,0.5l0.2,0.2
			c-0.1,2.1,0,4.1,0.3,6.1l0.4,1.7c0.1,0.3,0.3,0.5,0.3,0.8c0,0.1,0,0.3-0.1,0.4c-0.2,0.2-0.4-0.2-0.6-0.3c-0.2-0.1-0.5-0.2-0.8-0.4
			c-0.9-0.6-1.8-1.3-2.3-2.2c-0.2-1.1-0.6-2.3-1.2-3.2c-0.2-0.4-0.4-0.9-0.8-1c-0.2,0-0.3,0.1-0.5,0.1c-0.2,0-0.4-0.2-0.6-0.1
			c-0.1,0-0.2,0.2-0.3,0.2l-0.9-0.4c-0.1,0-0.2,0.1-0.3,0.2c-0.2,0.1-0.5,0.1-0.8,0.1c-0.3,0.1-0.5,0.3-0.8,0.5
			c-0.1,0-0.2,0-0.3-0.1c-0.3-0.3-0.6-0.7-0.8-1.1l0.1-0.1l-0.8-0.3l-2.3-0.3c-0.3,0-0.5,0-0.8,0c-0.3-0.1-0.7,0-1,0
			c-1.5,1.1-3,2.3-4.3,3.6c-0.8,0.8-1.5,1.6-2.2,2.5l-1-0.2c-0.3,0-0.3-0.4-0.3-0.6c-0.1-0.4-0.4-0.7-0.7-0.9l-1.3-2.6l-0.2-0.2
			l-0.7,0c-1.2,0.2-2.3,0.6-3.4,1.1l0.7,1.3c0.3,0.5,0.1,1.2,0.1,1.8c0,0.5,0,1,0.1,1.5c-1,0.7-2,1.4-3.1,1.8
			c-0.4,0.2-0.9,0.3-1.4,0.4c-0.2,0-0.3,0-0.5,0c-0.3-0.1-0.4-0.5-0.4-0.9c0.1-1.4,0.3-2.9,0.1-4.3c-0.2-0.6-0.4-1.2-0.6-1.7
			c-0.2-0.4-0.3-0.8-0.6-1.1c-0.3-0.4-0.7-0.8-1.1-1.2c-0.7-0.6-1.5-1.2-2.3-1.6l-2.3-0.3l-2.8,0.6c-0.6,0.1-1,0.5-1.5,0.9
			c-0.6,0.7-0.9,1.5-1.4,2.3c-0.1,0.1-0.1,0.2-0.3,0.3c-0.1,0.1-0.3,0.2-0.4,0.1c-0.1-0.1-0.1-0.2-0.1-0.3c0.6-1.1,0.9-2.4,0.9-3.7
			c0.3-0.6,0.4-1.3,0.3-2l-0.2-0.2c-0.1-0.7-0.2-1.4-0.5-2.1c-0.1-0.3-0.3-0.7-0.6-0.9c-0.4-0.3-0.9-0.5-1.4-0.6L58.6,22l-1.4,0
			c-1.9,0.4-3.7,1.2-5.4,2.2c-1,0.6-2,1.2-2.9,1.8l-0.4,0.5l-3.1,1.6c-0.7,0.4-1.2,1-1.8,1.5c-0.2,0.1-0.4,0.3-0.6,0.4
			c-0.1,0.1-0.3,0.2-0.5,0.1c-0.1-0.1-0.2-0.3-0.2-0.4l2.5-2.6l-0.1-0.2h-0.4c-0.2,0.2-0.3,0.5-0.6,0.8c-0.1,0.1-0.2,0.2-0.3,0.2
			c0.1-0.2,0.2-0.4,0.3-0.6c0.3-0.5,0.8-1,1.1-1.6c0.1-0.2,0.1-0.4,0.2-0.6l1.3-1.8c0.1-0.2,0.3-0.2,0.5-0.4
			c0.1-0.2,0.2-0.4,0.1-0.6c0.1-0.2,0.5-0.2,0.5,0L46,25.1l-0.5,0.3c-0.2,0.1,0,0.3,0,0.5c0,0,0,0.1,0.1,0.1l0.4,0
			c0.2,0,0.2-0.2,0.3-0.3c0.1-0.1,0.1-0.2,0.2-0.3L48,23c0.3-0.5,0.3-1.1,0.4-1.8c0.1-0.6,0.1-1.2,0.1-1.8c-0.1-0.6-0.2-1.1-0.5-1.7
			c-0.3-0.4-0.7-0.6-1.1-0.8l-2.5-0.8l-3,0.4c-0.4,0-0.7,0.2-1,0.2h0l-0.6,0l-1.6,0.5l-0.5,0l-7.4,3.2L30,20.9l-2,0.7l-1.4,1
			c-0.2,0.1-0.3,0.2-0.4,0.4c-0.1,0.1-0.1,0.3,0,0.5c0,0.3-0.3,0.5-0.5,0.7c-0.2,0.1-0.3,0.3-0.5,0.3c-0.2,0.1-0.4,0-0.5-0.2
			c-0.2-0.2-0.2-0.5-0.5-0.7l-0.6,0.3c-0.5,0.5-0.8,1.2-1.3,1.8c-0.2,0.3-0.5,0.5-0.7,0.9c-0.2,0.6-0.2,1.2,0,1.8
			c0.1,0.2,0.1,0.4,0.3,0.6c0.1,0.1,0.2,0.3,0.3,0.4l1.9,1.3c0.7,0.3,1.4,0.3,2.1,0l2.7-0.6c0.2-0.1,0.3-0.3,0.5-0.5
			c0.2-0.3,0.3-0.8,0.4-1.2c0-0.3,0.2-0.6,0.4-0.9c0.1-0.1,0.2-0.2,0.4-0.3l3.3-1.9c0.2-0.1,0.1-0.5,0.2-0.7c0.2-0.9,1.1-1.5,1.9-2
			l5.1-2.5c0.1,0,0.2,0,0.3,0c0.3,0,0.6-0.2,0.9-0.2c0.4,0.2,0.8,0.5,1,0.9c-0.2,0.8-0.4,1.6-0.7,2.4c-0.3,0.6-0.6,1.2-0.9,1.8
			l-5,7.2c-1.1,2.2-2.4,4.3-3.8,6.2L32,38.7l-1.6,2.5c0.1,0.2,0.1,0.4,0.1,0.7c0,0.2-0.1,0.3-0.1,0.5c0,0.2,0.2,0.4,0.3,0.5
			c0.1,0.1,0.2,0.1,0.2,0.2c0.8,0,1.6-0.3,2.4-0.4c0.3-0.1,0.6,0,0.9,0c0.8,0,1.5-0.1,2.3-0.3c0.4-0.2,0.7-0.6,1.1-0.9l4.7-4.5
			l2.2-2.7l0.3-0.6l1.9-1.8l1.7-0.9c0.3-0.1,0.5-0.4,0.7-0.7c0.8-0.7,1.7-1.3,2.6-1.8l0.2-0.3c1.1-0.7,2.2-1.5,3.1-2.4h0.4
			c0.1,0,0.1,0.1,0.1,0.2c0.1,0.3-0.1,0.6-0.1,0.8c-0.4,0.5-0.6,1.2-0.8,1.8c-0.4,0.9-0.9,1.7-1.1,2.7c-0.3,1-0.4,2-0.3,3.1
			c0.1,0.7,0.2,1.4,0.5,2.1c0.5,1.1,1.7,1.8,2.8,2.2c0.4,0.1,0.8-0.2,1.2-0.2c0.2,0,0.3,0.1,0.5,0.2l0.2-0.1l2.7,0.3
			c0.6-0.9,1.5-1.5,2-2.5c0.6-1.5,0.9-3,1.5-4.5l1.1,0.3c0.2,0,0.2,0.2,0.3,0.4c0.3,0.5,0.3,1.1,0.3,1.6c-0.2,1.4-0.3,2.9,0.1,4.4
			c0.1,0.6,0.4,1.2,0.7,1.7l1.7,2.2c0.2,0.3,0.7,0.4,1,0.6c0.9,0.3,1.9,0.4,2.9,0.2l2.4-0.1l0.6-0.2l2.5-1.4c0.6-0.9,0.9-2,0.8-3.1
			h0.3l0.5,1l1.4,1.2c1.6-0.1,3.2,0.2,4.8,0.2C87,41.4,88,42,89,42.3c0.2,0.1,0.4,0.3,0.5,0.5l1.4,0.4c0.5-0.2,1-0.3,1.6-0.3
			c0.6,0,1.1,0.2,1.6,0.2c0.6,0,1.1-0.2,1.7-0.3c0.2,0,0.5,0,0.7,0.1c0.1,0.1,0.2,0.1,0.3,0.1c0.6-0.1,1.1-0.2,1.6-0.5
			c0.6-0.3,0.9-0.7,1.3-1.2c0.3-0.4,0.6-0.7,1-1c0.6,0.2,1.1,0.5,1.6,0.7c0.8-0.1,1.6,0,2.3,0.3c0.1,0.1,0.2,0.2,0.4,0.4l3.6,0
			c0.2,0,0.4-0.2,0.6-0.2c0.2,0,0.4,0.1,0.6,0.1c0.8-0.2,1.7-0.3,2.6-0.2c0.4,0.3,0.8,0.5,1.3,0.6c0.5,0,0.9,0,1.4,0.1
			c0.2-0.1,0.5-0.1,0.7-0.1c0.3,0,0.5,0.2,0.7,0.3c0.3,0.1,0.7,0.2,1.1,0.3l3.7,0.4c0.2,0,0.4-0.1,0.6-0.1c0.1,0,0.3,0.1,0.4,0.1
			l1-0.2l0.5,0.1c0.4-0.3,0.8-0.4,1.2-0.6l2-1.5c0.2-0.1,0.4-0.1,0.6-0.2c0.4,0,0.7-0.1,1.1,0c0.2-0.2,0.4-0.3,0.6-0.4l1.9,1.1
			l4.8,1.3l2.2,0.3l3.3-0.1c0.4,0,0.6-0.4,0.9-0.7c0.3-0.3,0.7-0.5,1-0.7C143.7,41.1,143.3,40.3,142.9,39.9z M97.6,38.4
			c-0.1,0.2-0.3,0.5-0.5,0.6c-0.2,0.2-0.5,0.3-0.8,0.4c-1,0-2-0.3-2.9-0.8l-1.9-1.3l0.1-0.2c0.1-0.2,0.3-0.2,0.4-0.3
			c0.5-0.5,1.1-1,1.6-1.4c0.7-0.6,1.4-1.2,2-1.8c0.1-0.3,0.3-0.6,0.6-0.8l1.4-0.5c0.2,0.2,0.3,0.5,0.4,0.8c0.1,0.3,0,0.6,0,0.9
			c0.1,0.9,0.5,1.8,0.6,2.7c0,0.2,0,0.3,0,0.5C98.4,37.5,97.9,37.9,97.6,38.4z M125.5,39.9l-0.4,0.2l-1.4,0.2
			c-0.3-0.2-0.7-0.3-1.1-0.3c-0.2,0-0.5,0-0.7-0.1c-0.6-0.3-1.1-0.7-1.5-1.1c-0.1-0.2-0.3-0.3-0.4-0.6l-0.1-0.4c0-0.2,0-0.3,0-0.5
			l0.8-1.6c0-0.1-0.1-0.1-0.1-0.2c0-0.2,0.1-0.4,0.2-0.6c0.3-0.6,0.9-1,1.5-1.2c0.5-0.2,1-0.3,1.5-0.6c0.1-0.3,0.3-0.6,0.6-0.8h0.2
			l0.5,0.9l1.4,4.3c0.1,0.3,0.5,0.4,0.5,0.8c0,0.1,0,0.2,0,0.3L125.5,39.9z"/>
	</g>
</g>
</svg>
