<?xml version="1.0" encoding="utf-8"?>
<!-- Generator: Adobe Illustrator 24.3.0, SVG Export Plug-In . SVG Version: 6.00 Build 0)  -->
<svg version="1.1" id="Layer_1" xmlns="http://www.w3.org/2000/svg" xmlns:xlink="http://www.w3.org/1999/xlink" x="0px" y="0px"
	 viewBox="0 0 164.9 61.2" style="enable-background:new 0 0 164.9 61.2;" xml:space="preserve">
<g id="TESLA">
	<path d="M124.2,27.8v9.4h3V31h11v6.3h3v-9.4H124.2 M126.9,24.8h11.6c1.6-0.3,2.8-1.8,3.1-3.1h-17.9C124.1,23,125.3,24.4,126.9,24.8
		 M115,37.3c1.5-0.6,2.3-1.8,2.7-3.1h-13.6V21.7h-3.1v15.6H115 M78.5,24.7h10.8c1.6-0.5,3-1.7,3.3-3.1H75.5v9.2h14v3.2H78.5
		c-1.7,0.5-3.2,1.6-3.9,3.1h17.9v-9.4h-14L78.5,24.7 M51.9,24.8h11.6c1.6-0.3,2.8-1.8,3.1-3.1h-18C49.1,23,50.3,24.4,51.9,24.8
		 M51.9,30.9h11.6c1.6-0.3,2.8-1.8,3.1-3.1h-18C49.1,29.1,50.3,30.6,51.9,30.9 M51.9,37.3h11.6c1.6-0.3,2.8-1.8,3.1-3.1h-18
		C49.1,35.5,50.3,36.9,51.9,37.3"/>
	<g>
		<path d="M21.6,21.7c0.3,1.4,1.6,2.8,3.1,3.1h4.9l0.3,0.1v12.4H33V24.8l0.3-0.1h4.9c1.6-0.4,2.8-1.7,3.1-3.1v0L21.6,21.7"/>
	</g>
</g>
</svg>
