<?xml version="1.0" encoding="utf-8"?>
<!-- Generator: Adobe Illustrator 24.3.0, SVG Export Plug-In . SVG Version: 6.00 Build 0)  -->
<svg version="1.1" id="Layer_1" xmlns="http://www.w3.org/2000/svg" xmlns:xlink="http://www.w3.org/1999/xlink" x="0px" y="0px"
	 viewBox="0 0 164.9 61.2" style="enable-background:new 0 0 164.9 61.2;" xml:space="preserve">
<path d="M63.6,17.9c-0.6,0-1.2,0.2-1.5,0.6c-0.3,0.3-0.6,0.8-0.6,1.8c0,1,0,15.1,0,18c0,0.8,0.2,1.4,0.6,1.9
	c0.4,0.4,0.9,0.6,1.5,0.6c0.6,0,1.1-0.2,1.5-0.6c0.4-0.4,0.6-1,0.6-3.7V20.4c0-0.8-0.2-1.5-0.6-1.9C64.8,18.1,64.3,17.9,63.6,17.9z
	 M71,17.9c-0.9,0.1-1.8,0.6-1.8,2.7v17.7c0,0.8,0.2,1.5,0.6,1.9c0.4,0.4,0.9,0.6,1.5,0.6c0.6,0,1.1-0.2,1.5-0.6
	c0.4-0.4,0.6-1,0.6-1.4c0-0.3,0.1-1.5,0.1-2c0-3.5,2.2-2.6,2.8-1.8c0.4,0.6,1.2,1.3,1.5,1.8c0,0,2.6,3.5,2.9,3.7
	c0.3,0.2,0.7,0.4,1.2,0.4c0.6,0,1.1-0.2,1.5-0.5c0.4-0.4,0.6-0.9,0.6-1.6c0-0.2-0.1-0.5-0.2-0.7l-4.3-5.8c-0.7-0.9-0.4-1.8,0.3-2.6
	c0.4-0.5,2.1-2.2,2.4-2.6c0.7-0.9,0.6-1.8-0.1-2.4c-0.7-0.7-1.9-0.7-2.7,0.1L76,27.8c-0.8,0.8-2.6,0.9-2.6-0.8v-6.5
	c0-2.1-1-2.6-2-2.6C71.2,17.9,71.1,17.9,71,17.9z M117.6,17.9c-0.6,0-1.1,0.2-1.5,0.6c-0.3,0.3-0.6,0.8-0.6,1.8v15.7
	c0,1,0,1.8,0,2.3c0,0.8,0.2,1.4,0.6,1.9c0.4,0.4,0.9,0.6,1.5,0.6c0.6,0,1.2-0.2,1.6-0.6c0.4-0.4,0.6-1,0.6-3.7V20.4
	c0-0.8-0.2-1.5-0.6-1.9C118.8,18.1,118.2,17.9,117.6,17.9z M125.1,17.9c-0.9,0.1-1.8,0.6-1.8,2.7v17.7c0,0.8,0.2,1.5,0.6,1.9
	c0.4,0.4,0.9,0.6,1.5,0.6c0.6,0,1-0.2,1.5-0.6c0.4-0.4,0.6-1,0.6-1.4c0-0.3,0.1-1.5,0.1-2c0-0.3,0-0.5,0-0.7
	c0.3-2.7,2.3-1.8,2.8-1.1c0.3,0.4,0.6,0.8,0.9,1.1c0.2,0.3,0.4,0.5,0.6,0.7c0,0,2.6,3.5,2.8,3.7c0.3,0.2,0.7,0.4,1.2,0.4
	c0.6,0,1.1-0.2,1.5-0.5c0.4-0.4,0.6-0.9,0.6-1.6c0-0.2-0.1-0.5-0.2-0.7l-1.5-1.9l-2.9-3.9c-0.7-0.9-0.4-1.8,0.3-2.6
	c0.4-0.5,2.1-2.2,2.4-2.6c0.7-0.9,0.6-1.8-0.1-2.4c-0.7-0.7-1.9-0.7-2.7,0.1c-0.5,0.5-1.8,1.9-3.2,3.2c-0.8,0.8-2.6,0.9-2.6-0.8
	v-6.5c0-2.1-1-2.6-2-2.6C125.3,17.9,125.2,17.9,125.1,17.9L125.1,17.9z M30.1,18.3c-1.3,0-2.3,0.5-2.3,1.9c0,0.7,0.4,1.9,2,1.9H31
	c3.1,0,3.9,1.4,3.9,5.1l0.3,11c0,0.9,0.3,1.7,0.7,2.1c0.4,0.4,0.8,0.7,1.6,0.7c0.8,0,1.1-0.2,1.6-0.7c0.4-0.4,0.7-1.2,0.7-2.1
	l0.2-11c0-3.6,0.8-5.1,3.9-5.1H45c1.5,0,1.9-1.2,1.9-1.9c0-1.4-1-1.9-2.3-1.9H30.1L30.1,18.3z M84,18.3c-1.3,0-2.4,0.5-2.4,1.9
	c0,0.7,0.4,1.9,2,1.9h1.3c3.1,0,3.9,1.4,3.9,5.1l0.2,8.9l0,2c0,0.9,0.3,1.7,0.7,2.1c0.4,0.4,0.8,0.7,1.6,0.7c0.8,0,1.1-0.2,1.6-0.7
	c0.4-0.4,0.7-1.2,0.7-2.1l0-2l0.2-8.9c0-3.6,0.8-5.1,3.9-5.1H99c1.5,0,2-1.1,2-1.9c0-1.4-1-1.9-2.3-1.9H84L84,18.3z M51.4,23.7
	c-1.6,0-3.1,0.2-4.6,0.8c-1.1,0.5-2.6,1.6-2.9,2.6c-0.1,0.5-0.1,0.9,0.3,1.4c0.4,0.4,0.9,0.6,1.2,0.7c0.6,0.1,1.3,0,1.8-0.6
	c0.7-0.7,1.1-1,1.6-1.2c0.4-0.1,0.9-0.4,1.9-0.4c1.3,0,2.1,0.2,2.6,0.8c0.5,0.7,0.4,1.8,0.3,2.1c-0.2,0.4-0.6,0.4-2.4,0.7
	c-0.9,0.1-2.7,0.3-4.3,0.8c-1.3,0.4-2.3,1.1-2.8,1.7c-0.7,0.9-1,1.7-1,2.9c0,0.8,0.2,2.1,0.7,2.8c1.4,2.1,3.4,2.2,4.2,2.2
	c2.9,0.1,4.7-1.1,5.4-1.6c0.5-0.3,0.9-0.2,1.2,0c0.6,0.7,0.6,0.9,1,1.1c0.6,0.5,1.4,0.7,2.5,0c0.9-0.6,1.2-1.6,0.4-3
	c-0.5-1-0.6-1.4-0.6-2.3c0-0.9,0-3.8,0-4.8c0-1.6-0.1-2.8-0.5-3.7c-0.4-1-1.3-1.8-2.3-2.3C53.9,23.9,52.4,23.8,51.4,23.7L51.4,23.7z
	 M105.4,23.7c-1.7,0-3.1,0.2-4.6,0.8c-1.1,0.5-2.6,1.6-2.9,2.6c-0.1,0.5-0.1,0.9,0.4,1.4c0.4,0.4,1,0.6,1.2,0.7
	c0.6,0.1,1.2,0,1.8-0.6c0.7-0.7,1.1-1,1.6-1.2c0.4-0.1,0.9-0.4,1.9-0.4c1.3,0,2.1,0.2,2.6,0.8c0.5,0.7,0.4,1.8,0.3,2.1
	c-0.2,0.4-0.6,0.4-2.4,0.7c-0.9,0.1-2.6,0.3-4.3,0.8c-1.3,0.4-2.3,1.1-2.9,1.7c-0.7,0.9-1,1.7-1,2.9c0,0.1,0,0.1,0,0.2
	c0,0.8,0.3,1.9,0.7,2.6c1.4,2.1,3.4,2.2,4.2,2.2c2.8,0,4.7-1.1,5.4-1.6c0.5-0.3,1-0.2,1.2,0c0.5,0.7,0.6,0.9,1,1.1
	c0.6,0.5,1.4,0.7,2.5,0c0.9-0.6,1.2-1.6,0.4-3c-0.3-0.6-0.5-0.9-0.5-1.3c-0.1-0.3-0.1-0.6-0.1-1c0-0.9,0-3.8,0-4.8
	c0-1.6-0.1-2.8-0.5-3.7c-0.4-1-1.3-1.8-2.4-2.3C107.9,23.9,106.4,23.8,105.4,23.7L105.4,23.7z M52.2,33.5c0.3,0,0.5,0,0.7,0
	c0.4,0,0.7,0.3,0.8,0.7c0.1,0.4,0,1.1-0.3,1.5c-0.3,0.5-0.7,0.8-1.4,1.1c-1.5,0.6-2.7,0.7-3.4,0.3c-0.4-0.2-0.6-0.6-0.7-1.1
	c-0.1-0.9,0.2-1.3,0.5-1.5c0.5-0.4,1.3-0.6,2.6-0.8C51.3,33.5,51.7,33.5,52.2,33.5L52.2,33.5z M106.1,33.5c0.3,0,0.5,0,0.7,0
	c0.4,0,0.7,0.3,0.8,0.7c0.1,0.4,0,1.1-0.3,1.5c-0.1,0.1-0.2,0.3-0.3,0.4c-0.3,0.3-0.6,0.5-1.1,0.7c-1.5,0.6-2.7,0.7-3.4,0.3
	c-0.4-0.2-0.6-0.5-0.7-1c0,0,0-0.1,0-0.2c-0.1-0.9,0.3-1.3,0.5-1.5c0.5-0.4,1.2-0.6,2.5-0.8C105.3,33.5,105.7,33.5,106.1,33.5
	L106.1,33.5z"/>
</svg>
