<?xml version="1.0" encoding="utf-8"?>
<!-- Generator: Adobe Illustrator 24.3.0, SVG Export Plug-In . SVG Version: 6.00 Build 0)  -->
<svg version="1.1" id="Layer_1" xmlns="http://www.w3.org/2000/svg" xmlns:xlink="http://www.w3.org/1999/xlink" x="0px" y="0px"
	 viewBox="0 0 164.9 61.2" style="enable-background:new 0 0 164.9 61.2;" xml:space="preserve">
<g>
	<g>
		<path d="M128,24.9h25.4l2.5-2.8h-36.4l-10.1,17h23.6l1.7-2.8h-13.5l2.6-4.3h13.5l1.6-2.8h-13.4L128,24.9z M108.6,29.2h-10l1.6-2.7
			c0.7-1.1,1.3-1.5,2.3-1.5c1,0,1.4,0.8,0.8,1.8h10.2l1-1.8c0.7-1.3,0.7-2.8-1.1-2.8h-18c-1.6,0-2.9,0.2-3.9,1.7l-3.2,5.4
			c-0.9,1.5-0.8,2.8,1.4,2.8h10.4l-1.7,2.9c-0.5,0.8-1.1,1.3-2.5,1.3c-1.2,0-1.2-0.8-0.6-1.6H85.2l-1.2,2c-0.7,1.3-0.1,2.4,1.6,2.4
			h17.9c1.6,0,3-0.7,3.9-2.1l3-5C111,30.7,110.7,29.2,108.6,29.2z M152.1,25.4c-0.8,0-1.5,0.6-1.5,1.4c0,0.8,0.7,1.4,1.5,1.4
			c0.8,0,1.5-0.6,1.5-1.4C153.6,26,153,25.4,152.1,25.4z M152.1,28c-0.7,0-1.2-0.5-1.2-1.2c0-0.6,0.5-1.1,1.2-1.1
			c0.7,0,1.2,0.5,1.2,1.1C153.3,27.5,152.8,28,152.1,28z M85.5,22.1H70.2c-2.1,0-4.8,0-6.4,2.8L57,36.3c-0.9,1.5-0.1,2.8,1.6,2.8
			h17.8c1.8,0,3-0.5,4.4-2.8l6.8-11.4C88.5,23.4,87.1,22.1,85.5,22.1z M76.9,26.4l-5.1,8.5c-0.7,1.2-1.3,1.3-2.8,1.3
			c-1.6,0-2-0.5-1.5-1.3l5.2-8.5c0.7-1.3,1.6-1.5,2.9-1.5S77.6,25.3,76.9,26.4z M54.9,30.9c1.1,0,2.6-0.7,3.5-2.3l2-3.4
			c1-1.7-0.2-3.1-1.8-3.1H39l-8.5,14.2H11.8L9,39.1h40.6c2.5,0,3.3-1.2,3.9-2.1l2-3.5C56,32.5,56,31.5,54.9,30.9z M48.6,33.5l-1,1.6
			c-0.3,0.5-0.7,1.1-1.9,1.1h-5l2.6-4.3h4.9C49,32,49,32.8,48.6,33.5z M52.8,26.4l-1,1.6c-0.3,0.5-0.7,1.1-1.9,1.1h-5l2.6-4.3h4.9
			C53.2,24.9,53.2,25.7,52.8,26.4z M152.9,26.5c0-0.1-0.1-0.3-0.2-0.3c-0.1-0.1-0.3-0.1-0.4-0.1h-0.7v1.6h0.2v-0.7h0.3l0.5,0.7h0.3
			l-0.5-0.7C152.7,26.9,152.9,26.8,152.9,26.5z M152.1,26.7h-0.3v-0.5h0.4c0.2,0,0.4,0,0.4,0.2C152.7,26.7,152.3,26.7,152.1,26.7z"
			/>
	</g>
</g>
</svg>
