<?xml version="1.0" encoding="utf-8"?>
<!-- Generator: Adobe Illustrator 24.3.0, SVG Export Plug-In . SVG Version: 6.00 Build 0)  -->
<svg version="1.1" id="Layer_1" xmlns="http://www.w3.org/2000/svg" xmlns:xlink="http://www.w3.org/1999/xlink" x="0px" y="0px"
	 viewBox="0 0 164.9 61.2" style="enable-background:new 0 0 164.9 61.2;" xml:space="preserve">
<path d="M98.6,35.7c1.3,0.5,2,1.6,2,2.7c0,1.5-1.2,2.5-3.1,2.5c-2.1,0-3.1-1.9-3.3-2.4l-0.3-0.7h-3.9l0,0h-3.6c-1,1.7-3,3.2-5.3,3.2
	c-4.2,0-6.3-3.3-6.5-6.6h17.1v-0.7c0-1.4-0.1-2.6-0.4-3.8c0.5,1.5,1.6,3.1,3.9,4.2C96,34.5,97.3,35.1,98.6,35.7 M80.8,25.4
	c3.5,0,5.2,2.4,5.7,4.9H74.8C75.4,27.8,77.6,25.4,80.8,25.4 M115.1,25.4V21h-3.6v-5.3H107V21h-9c-4.2,0-7.2,2.8-7.2,6.7
	c0,0.4,0,0.9,0.1,1.3c-1.4-5-5.1-8-10.2-8c-6.1,0-10.8,4.8-11.2,11.3v-1.4c0-5.5-4.4-10-9.9-10c-5.4,0-9.9,4.5-9.9,10v14.3h4.5V30.9
	c0-3,2.4-5.4,5.3-5.4c2.9,0,5.3,2.4,5.3,5.4v14.3h4.5V34.1c0.4,6.5,5.1,11.4,11.4,11.4c3.8,0,7.1-2.2,9-4.8c1.4,3,4.2,4.8,7.6,4.8
	c4,0,8-2.5,8-7.4c0-2.9-1.7-5.3-4.7-6.7c-0.3-0.2-0.7-0.3-1-0.5l0,0c-0.4-0.2-0.7-0.3-1.1-0.5c-2-0.9-2.9-1.6-2.9-2.9
	c0-1.2,1-2,2.3-2h9v12.7c0,4,3.3,7.3,7.3,7.3V41c-1.5,0-2.8-1.3-2.8-2.8V25.4C113.2,25.4,114.6,25.4,115.1,25.4"/>
</svg>
