<?xml version="1.0" encoding="utf-8"?>
<!-- Generator: Adobe Illustrator 24.3.0, SVG Export Plug-In . SVG Version: 6.00 Build 0)  -->
<svg version="1.1" id="Layer_1" xmlns="http://www.w3.org/2000/svg" xmlns:xlink="http://www.w3.org/1999/xlink" x="0px" y="0px"
	 viewBox="0 0 61 61" style="enable-background:new 0 0 61 61;" xml:space="preserve">
<style type="text/css">
	.st0{fill:#BEFFEF;}
	.st1{fill:none;stroke:#000000;stroke-width:2;stroke-linecap:round;stroke-linejoin:round;stroke-miterlimit:10;}
</style>
<g>
	<path class="st0" d="M43.5,10.8h4.7c2.3,0,4.2,1.9,4.2,4.2v24.5c0,2.3-1.9,4.2-4.2,4.2H18.5l-6.4,5V15c0-2.3,1.9-4.2,4.2-4.2h8.5
		H43.5z"/>
	<path class="st1" d="M39.9,14.3h4.7c2.3,0,4.2,1.9,4.2,4.2V43c0,2.3-1.9,4.2-4.2,4.2H14.9l-6.4,5V18.5c0-2.3,1.9-4.2,4.2-4.2h8.5"
		/>
	<path class="st1" d="M21.3,21.1c0,0,2.6-0.3,4.9-2.6s2.6-5.9,2.6-9.7c2.2,0,5.1,0.2,5.1,3.7s0,7.9,0,7.9h7.8c0,0,3.7-0.4,3.7,2.6
		c0,3.3-3.4,3-3.4,3s3.4-0.4,3.4,2.3c0,3.1-4.3,2.4-4.3,2.4s3.2,0,3.2,2.6c0,3-4.2,2.3-4.2,2.3s2.7,0.2,2.7,2.6
		c0,2.9-3.9,2.6-3.9,2.6H24.5c0,0-2.4,0.1-3.2-2.1"/>
	<polyline class="st1" points="21.3,36.7 21.3,41 16,41 16,20.4 21.3,20.4 21.3,30.7 	"/>
</g>
</svg>
