<?xml version="1.0" encoding="utf-8"?>
<!-- Generator: Adobe Illustrator 24.3.0, SVG Export Plug-In . SVG Version: 6.00 Build 0)  -->
<svg version="1.1" id="Layer_1" xmlns="http://www.w3.org/2000/svg" xmlns:xlink="http://www.w3.org/1999/xlink" x="0px" y="0px"
	 viewBox="0 0 147.4 35.5" style="enable-background:new 0 0 147.4 35.5;" xml:space="preserve">
<style type="text/css">
	.st0{fill:#FFFFFF;}
</style>
<g>
	<g>
		<path class="st0" d="M75.2,28.8c-0.5-0.3-1-0.4-1.7-0.4c-0.7,0-1.3,0.2-1.8,0.5s-0.9,0.7-1.2,1.3c-0.3,0.5-0.4,1.2-0.4,1.9
			c0,0.7,0.2,1.3,0.5,1.8c0.3,0.5,0.7,0.9,1.3,1.2c0.6,0.3,1.2,0.5,1.9,0.5c0.5,0,1-0.1,1.4-0.3s0.9-0.4,1.3-0.8l-0.9-1.2
			c-0.3,0.2-0.6,0.4-0.8,0.5c-0.3,0.1-0.5,0.1-0.9,0.1c-0.6,0-1.1-0.1-1.4-0.4c-0.4-0.3-0.6-0.7-0.7-1.2h4.9l0-0.6
			c0-0.7-0.1-1.2-0.4-1.8C76.1,29.5,75.7,29.1,75.2,28.8z M75,31.2h-3.2c0.2-0.9,0.8-1.3,1.8-1.3c0.4,0,0.7,0.1,1,0.4
			C74.8,30.4,75,30.7,75,31.2L75,31.2z M81,28.2c0.4-0.2,0.9-0.4,1.4-0.4c0.4,0,0.8,0.1,1.2,0.3c0.4,0.2,0.7,0.4,1,0.8l1.2-1.3
			c-0.4-0.5-0.8-0.8-1.4-1.1c-0.6-0.3-1.2-0.4-1.9-0.4c-0.7,0-1.3,0.1-1.8,0.4c-0.6,0.2-1.1,0.6-1.5,1c-0.4,0.4-0.7,0.9-1,1.5
			c-0.2,0.6-0.4,1.2-0.4,1.8c0,0.9,0.2,1.7,0.6,2.5c0.4,0.7,0.9,1.3,1.6,1.7c0.7,0.4,1.5,0.6,2.4,0.6c0.4,0,0.9-0.1,1.3-0.2
			c0.4-0.1,0.8-0.3,1.2-0.4c0.4-0.2,0.6-0.4,0.8-0.6l-0.9-1.5c-0.3,0.3-0.6,0.5-1,0.7c-0.4,0.2-0.8,0.3-1.2,0.3
			c-0.6,0-1.1-0.1-1.5-0.4c-0.4-0.2-0.8-0.6-1-1c-0.2-0.4-0.4-1-0.4-1.5c0-0.6,0.1-1.1,0.4-1.5C80.3,28.8,80.6,28.5,81,28.2z
			 M92.1,28.8c-0.5-0.3-1.2-0.5-1.8-0.5c-0.7,0-1.3,0.2-1.9,0.5c-0.5,0.3-1,0.7-1.3,1.3c-0.3,0.5-0.5,1.1-0.5,1.8
			c0,0.7,0.2,1.3,0.5,1.8c0.3,0.5,0.7,1,1.3,1.3c0.5,0.3,1.2,0.5,1.9,0.5c0.7,0,1.3-0.2,1.8-0.5c0.5-0.3,1-0.7,1.3-1.3
			c0.3-0.5,0.5-1.2,0.5-1.8c0-0.7-0.2-1.3-0.5-1.8C93,29.5,92.6,29.1,92.1,28.8z M91.8,32.9c-0.2,0.3-0.4,0.5-0.6,0.7
			c-0.3,0.2-0.6,0.3-0.9,0.3c-0.4,0-0.7-0.1-0.9-0.3c-0.3-0.2-0.5-0.4-0.7-0.7c-0.2-0.3-0.2-0.7-0.2-1c0-0.4,0.1-0.7,0.2-1
			c0.2-0.3,0.4-0.5,0.7-0.7c0.3-0.2,0.6-0.3,0.9-0.3c0.3,0,0.7,0.1,0.9,0.3c0.3,0.2,0.5,0.4,0.6,0.7c0.2,0.3,0.2,0.7,0.2,1
			C92,32.3,92,32.6,91.8,32.9z M103.4,28.3c-0.5,0-0.9,0.1-1.3,0.4c-0.4,0.2-0.8,0.6-1,1c-0.2-0.5-0.5-0.8-0.8-1
			c-0.3-0.2-0.7-0.3-1.2-0.3c-0.4,0-0.8,0.1-1.1,0.3c-0.4,0.2-0.7,0.5-0.9,0.8l0-1h-1.7v6.9H97v-4.1c0-0.4,0.1-0.7,0.4-0.9
			c0.3-0.3,0.6-0.4,1-0.4c0.4,0,0.7,0.1,0.9,0.4c0.2,0.2,0.3,0.6,0.3,1v4.1h1.8v-4.1c0-0.4,0.1-0.7,0.4-1c0.3-0.3,0.6-0.4,1-0.4
			c0.8,0,1.2,0.5,1.2,1.4v4h1.8v-4.2C105.8,29.3,105,28.3,103.4,28.3z M115.7,28.3c-0.5,0-0.9,0.1-1.3,0.4c-0.4,0.2-0.8,0.6-1,1
			c-0.2-0.5-0.5-0.8-0.8-1c-0.3-0.2-0.7-0.3-1.2-0.3c-0.4,0-0.8,0.1-1.1,0.3c-0.4,0.2-0.7,0.5-0.9,0.8l0-1h-1.7v6.9h1.8v-4.1
			c0-0.4,0.1-0.7,0.4-0.9c0.3-0.3,0.6-0.4,1-0.4c0.4,0,0.7,0.1,0.9,0.4c0.2,0.2,0.3,0.6,0.3,1v4.1h1.8v-4.1c0-0.4,0.1-0.7,0.4-1
			c0.3-0.3,0.6-0.4,1-0.4c0.8,0,1.2,0.5,1.2,1.4v4h1.8v-4.2C118,29.3,117.3,28.3,115.7,28.3z M124.5,28.8c-0.5-0.3-1-0.4-1.7-0.4
			c-0.7,0-1.3,0.2-1.8,0.5c-0.5,0.3-0.9,0.7-1.2,1.3c-0.3,0.5-0.4,1.2-0.4,1.9c0,0.7,0.2,1.3,0.5,1.8c0.3,0.5,0.7,0.9,1.3,1.2
			c0.6,0.3,1.2,0.5,1.9,0.5c0.5,0,1-0.1,1.4-0.3c0.5-0.2,0.9-0.4,1.3-0.8l-0.9-1.2c-0.3,0.2-0.6,0.4-0.8,0.5
			c-0.3,0.1-0.5,0.1-0.9,0.1c-0.6,0-1.1-0.1-1.4-0.4c-0.4-0.3-0.6-0.7-0.7-1.2h4.9l0-0.6c0-0.7-0.1-1.2-0.4-1.8
			C125.4,29.5,125,29.1,124.5,28.8z M124.3,31.2h-3.2c0.2-0.9,0.8-1.3,1.8-1.3c0.4,0,0.7,0.1,1,0.4
			C124.2,30.4,124.3,30.7,124.3,31.2L124.3,31.2z M131.2,28.3c-0.4,0-0.8,0.1-1.2,0.4c-0.4,0.2-0.7,0.5-0.9,0.9l0-1.1h-1.7v6.9h1.8
			v-3.6c0-0.4,0.1-0.8,0.4-1.1c0.3-0.3,0.6-0.4,1.1-0.4c0.1,0,0.3,0,0.4,0.1c0.1,0,0.3,0.1,0.4,0.1l0.5-1.9c-0.1,0-0.2-0.1-0.3-0.1
			C131.5,28.3,131.4,28.3,131.2,28.3z M134.9,30.1c0.3-0.2,0.6-0.3,1-0.3c0.3,0,0.7,0.1,1,0.3c0.3,0.2,0.6,0.4,0.8,0.6l1-1.2
			c-0.3-0.4-0.7-0.7-1.2-0.9c-0.5-0.2-1.1-0.3-1.7-0.3c-0.6,0-1.2,0.2-1.7,0.5c-0.5,0.3-0.9,0.7-1.2,1.3c-0.3,0.5-0.4,1.1-0.4,1.8
			c0,0.7,0.1,1.3,0.4,1.8c0.3,0.5,0.7,1,1.2,1.3c0.5,0.3,1.1,0.5,1.7,0.5c0.6,0,1.1-0.1,1.7-0.3s0.9-0.5,1.2-0.9l-1-1.2
			c-0.2,0.3-0.5,0.5-0.8,0.6c-0.3,0.2-0.6,0.2-0.9,0.2c-0.4,0-0.7-0.1-1-0.3c-0.3-0.2-0.5-0.4-0.7-0.7c-0.2-0.3-0.2-0.6-0.2-1
			c0-0.4,0.1-0.7,0.2-1C134.4,30.5,134.7,30.3,134.9,30.1z M144.5,28.8c-0.5-0.3-1-0.4-1.7-0.4c-0.7,0-1.3,0.2-1.8,0.5
			c-0.5,0.3-0.9,0.7-1.2,1.3c-0.3,0.5-0.4,1.2-0.4,1.9c0,0.7,0.2,1.3,0.5,1.8c0.3,0.5,0.7,0.9,1.3,1.2c0.6,0.3,1.2,0.5,1.9,0.5
			c0.5,0,1-0.1,1.4-0.3c0.5-0.2,0.9-0.4,1.3-0.8l-0.9-1.2c-0.3,0.2-0.6,0.4-0.8,0.5c-0.3,0.1-0.5,0.1-0.9,0.1
			c-0.6,0-1.1-0.1-1.4-0.4c-0.4-0.3-0.6-0.7-0.7-1.2h4.9l0-0.6c0-0.7-0.1-1.2-0.4-1.8C145.4,29.5,145,29.1,144.5,28.8z M144.3,31.2
			h-3.2c0.2-0.9,0.8-1.3,1.8-1.3c0.4,0,0.7,0.1,1,0.4C144.2,30.4,144.3,30.7,144.3,31.2L144.3,31.2z M41.4,8.5h5.3v14.8h3.7V8.5h5.4
			V5.1H41.4V8.5z M71.1,23.3v-8.4c0-3.7-1.6-5.6-4.7-5.6c-0.8,0-1.7,0.2-2.4,0.6c-0.8,0.4-1.4,0.9-1.9,1.5V4.1h-3.5v19.2h3.6v-8.3
			c0-0.8,0.3-1.4,0.8-1.9c0.6-0.5,1.3-0.8,2.1-0.8c1.6-0.1,2.5,0.9,2.5,2.8v8.1H71.1z M83.2,20.2c-0.5,0.2-1.1,0.3-1.7,0.3
			c-1.2,0-2.1-0.3-2.9-0.9c-0.8-0.6-1.2-1.4-1.4-2.3h9.9l0-1.1c0-1.3-0.2-2.5-0.8-3.5c-0.5-1-1.3-1.8-2.3-2.4
			c-1-0.6-2.1-0.9-3.3-0.9c-1.4,0-2.6,0.3-3.6,0.9c-1,0.6-1.9,1.5-2.5,2.6c-0.6,1.1-0.9,2.3-0.9,3.8c0,1.4,0.3,2.6,0.9,3.6
			c0.6,1.1,1.5,1.9,2.6,2.5c1.1,0.6,2.4,0.9,3.9,0.9c1,0,1.9-0.2,2.9-0.5c1-0.4,1.8-0.9,2.6-1.5l-1.7-2.4
			C84.3,19.6,83.7,20,83.2,20.2z M80.8,12.4c0.8,0,1.5,0.2,2,0.7c0.6,0.5,0.9,1.1,0.9,1.8V15h-6.5C77.6,13.2,78.8,12.4,80.8,12.4z
			 M107,13.5h-8.3v3.2h4.7c0,0.7-0.2,1.3-0.6,1.8c-0.4,0.5-0.9,1-1.6,1.3c-0.7,0.3-1.4,0.5-2.2,0.5c-1.1,0-2.1-0.3-3-0.8
			c-0.9-0.5-1.6-1.3-2.1-2.2c-0.5-0.9-0.8-1.9-0.8-3c0-1.1,0.3-2.1,0.8-3c0.5-0.9,1.2-1.6,2.1-2.1c0.9-0.5,1.9-0.8,3-0.8
			c0.9,0,1.7,0.2,2.5,0.5c0.8,0.4,1.5,0.9,2.2,1.5l2.3-2.4c-0.7-0.9-1.7-1.6-2.9-2.2s-2.6-0.9-4-0.9c-1.4,0-2.7,0.2-3.9,0.7
			c-1.2,0.5-2.2,1.1-3.1,2c-0.9,0.8-1.5,1.8-2,3c-0.5,1.1-0.7,2.4-0.7,3.7c0,1.4,0.2,2.6,0.7,3.7c0.5,1.1,1.1,2.1,2,3
			c0.8,0.8,1.9,1.5,3,2c1.2,0.5,2.4,0.7,3.8,0.7c1.6,0,3-0.3,4.3-1c1.3-0.7,2.3-1.6,3-2.8c0.7-1.2,1.1-2.6,1.1-4.2c0-0.2,0-0.6,0-1
			C107,14.1,107,13.8,107,13.5z M112.7,22.7c1.1,0.6,2.4,0.9,3.9,0.9c1,0,1.9-0.2,2.9-0.5c1-0.4,1.8-0.9,2.6-1.5l-1.7-2.4
			c-0.6,0.5-1.1,0.8-1.7,1c-0.5,0.2-1.1,0.3-1.7,0.3c-1.2,0-2.1-0.3-2.9-0.9c-0.8-0.6-1.2-1.4-1.4-2.3h9.9l0-1.1
			c0-1.3-0.2-2.5-0.8-3.5c-0.5-1-1.3-1.8-2.3-2.4c-1-0.6-2.1-0.9-3.3-0.9c-1.4,0-2.6,0.3-3.6,0.9c-1,0.6-1.9,1.5-2.5,2.6
			c-0.6,1.1-0.9,2.3-0.9,3.8c0,1.4,0.3,2.6,0.9,3.6C110.7,21.2,111.5,22.1,112.7,22.7z M116.2,12.4c0.8,0,1.5,0.2,2,0.7
			c0.6,0.5,0.9,1.1,0.9,1.8V15h-6.5C113,13.2,114.2,12.4,116.2,12.4z M141.6,9.3c-0.9,0-1.8,0.2-2.7,0.7c-0.9,0.5-1.5,1.1-2,1.9
			c-0.4-0.9-1-1.6-1.6-2c-0.7-0.4-1.5-0.6-2.5-0.6c-0.8,0-1.6,0.2-2.3,0.6c-0.7,0.4-1.3,0.9-1.8,1.6l-0.1-2h-3.4v13.7h3.6v-8.2
			c0-0.7,0.3-1.4,0.8-1.9c0.5-0.5,1.2-0.8,2-0.8c0.7,0,1.3,0.2,1.7,0.7c0.4,0.5,0.6,1.2,0.6,2.1v8.1h3.6v-8.2c0-0.8,0.3-1.4,0.8-1.9
			c0.5-0.5,1.2-0.8,2.1-0.8c1.6,0,2.3,1,2.3,2.9v8.1h3.6V15C146.3,11.2,144.8,9.3,141.6,9.3z"/>
	</g>
</g>
<g>
	<g>
		<g>
			<path class="st0" d="M35.7,13.1L20.2,1.8l-1.4-1l-1,0.8L2.2,12.8l-0.4,0.3l-1,0.8l0.4,1.2l0.2,0.5l5.9,18.3L7.6,35h1.8h19.2h1.3
				l0.5-1.7l5.8-17.8l0.5-1.7L35.7,13.1z M19.4,4.2l12.2,8.9H16.5l0.7-2.3L19.4,4.2z M16.4,5.5l-1.9,5.9l-0.6,1.7h-8L16.4,5.5z
				 M12.5,17.7l-0.7,2.1l-5.9-4.3h7.2L12.5,17.7z M8.5,29.9l-4-12.4l6.5,4.7L8.5,29.9z M10.2,32.6l2.3-7.1l0.6-1.7l4.8,3.5l7.4,5.3
				h0H10.2z M28.4,31.8l-8.7-6.3l-5.8-4.2l0.9-2.9l0.9-2.9h17.9L28.4,31.8z"/>
		</g>
	</g>
	<g>
		<g>
			<path class="st0" d="M30.3,35.7H7.2L0,13.6L18.7,0l18.7,13.6L30.3,35.7z M8,34.4h21.4l6.6-20.4L18.7,1.5L1.4,14.1L8,34.4z
				 M27.1,33.2H9.3l3.4-10.4L27.1,33.2z M11,32h12.4l-10-7.3L11,32z M28.7,32.8L13.1,21.5l2.1-6.6h19.2L28.7,32.8z M14.6,21.1
				L28,30.9l4.8-14.7H16.2L14.6,21.1z M8.5,31.8L3.3,15.9l8.4,6.1L8.5,31.8z M5.6,19.1l2.9,8.8l1.8-5.4L5.6,19.1z M12.1,20.8l-8-5.8
				H14L12.1,20.8z M7.8,16.1l3.7,2.7l0.9-2.7H7.8z M33.5,13.7H15.7l3.4-10.4L33.5,13.7z M17.3,12.5h12.4l-10-7.3L17.3,12.5z
				 M14.4,13.7H4l13.5-9.8L14.4,13.7z M7.8,12.5h5.7L15.3,7L7.8,12.5z"/>
		</g>
	</g>
</g>
</svg>
